<svg xmlns="http://www.w3.org/2000/svg" width="1440" height="810" viewBox="0 0 1440 810" role="img" aria-labelledby="title desc">
  <title id="title">Panel de inspecciones eléctricas IsiVoltPro</title>
  <desc id="desc">Interfaz de inspección de baja tensión con progreso, mediciones, defectos y evidencias.</desc>
  <defs>
    <linearGradient id="bg" x1="0" x2="1" y1="0" y2="1"><stop stop-color="#f7f9fc"/><stop offset="1" stop-color="#edf2f8"/></linearGradient>
    <linearGradient id="top" x1="0" x2="1"><stop stop-color="#061a35"/><stop offset="1" stop-color="#103e78"/></linearGradient>
    <filter id="shadow" x="-20%" y="-20%" width="140%" height="160%"><feDropShadow dx="0" dy="12" stdDeviation="15" flood-color="#082447" flood-opacity=".11"/></filter>
  </defs>
  <rect width="1440" height="810" fill="url(#bg)"/>
  <rect x="0" y="0" width="1440" height="98" fill="url(#top)"/>
  <rect x="31" y="25" width="48" height="48" rx="13" fill="#ed1728"/>
  <path d="M44 49l8 8 15-20" stroke="#fff" stroke-width="4" fill="none" stroke-linecap="round" stroke-linejoin="round"/>
  <text x="94" y="55" font-family="Arial, sans-serif" font-size="24" font-weight="800" fill="#fff">IsiVoltPro Inspecciones</text>
  <text x="94" y="77" font-family="Arial, sans-serif" font-size="12" fill="#afc3da">Baja tensión · Trabajo de campo e informe técnico</text>
  <rect x="1180" y="27" width="220" height="44" rx="12" fill="rgba(255,255,255,.1)" stroke="rgba(255,255,255,.2)"/>
  <circle cx="1207" cy="49" r="7" fill="#39d58a"/>
  <text x="1223" y="55" font-family="Arial" font-size="13" font-weight="700" fill="#fff">Guardado automáticamente</text>

  <g transform="translate(32 126)">
    <rect width="260" height="648" rx="20" fill="#fff" filter="url(#shadow)"/>
    <text x="24" y="36" font-family="Arial" font-size="12" font-weight="800" letter-spacing="1.3" fill="#7b8ba0">INSPECCIÓN BT-2026-018</text>
    <text x="24" y="69" font-family="Arial" font-size="21" font-weight="800" fill="#071a33">Centro sanitario</text>
    <text x="24" y="94" font-family="Arial" font-size="13" fill="#6b7b91">Inspección periódica · REBT 2002</text>
    <rect x="24" y="119" width="212" height="8" rx="4" fill="#e8edf3"/><rect x="24" y="119" width="151" height="8" rx="4" fill="#1466ef"/>
    <text x="24" y="151" font-family="Arial" font-size="12" font-weight="800" fill="#1466ef">71% completada</text>
    <g font-family="Arial, sans-serif" font-size="14" font-weight="700">
      <g transform="translate(18 184)"><rect width="224" height="47" rx="11" fill="#eef5ff"/><circle cx="23" cy="23" r="11" fill="#1466ef"/><path d="M18 23l4 4 7-9" stroke="#fff" stroke-width="2" fill="none"/><text x="47" y="29" fill="#071a33">1. Datos generales</text></g>
      <g transform="translate(18 241)"><circle cx="23" cy="23" r="11" fill="#22b573"/><path d="M18 23l4 4 7-9" stroke="#fff" stroke-width="2" fill="none"/><text x="47" y="29" fill="#40536c">2. Documentación</text></g>
      <g transform="translate(18 298)"><circle cx="23" cy="23" r="11" fill="#22b573"/><path d="M18 23l4 4 7-9" stroke="#fff" stroke-width="2" fill="none"/><text x="47" y="29" fill="#40536c">3. Cuadros y protecciones</text></g>
      <g transform="translate(18 355)"><circle cx="23" cy="23" r="11" fill="#22b573"/><path d="M18 23l4 4 7-9" stroke="#fff" stroke-width="2" fill="none"/><text x="47" y="29" fill="#40536c">4. Puesta a tierra</text></g>
      <g transform="translate(18 412)"><circle cx="23" cy="23" r="11" fill="#f0a000"/><text x="23" y="28" text-anchor="middle" fill="#fff">5</text><text x="47" y="29" fill="#071a33">5. Mediciones</text></g>
      <g transform="translate(18 469)"><circle cx="23" cy="23" r="11" fill="#cad4e0"/><text x="23" y="28" text-anchor="middle" fill="#fff">6</text><text x="47" y="29" fill="#718096">6. Defectos</text></g>
      <g transform="translate(18 526)"><circle cx="23" cy="23" r="11" fill="#cad4e0"/><text x="23" y="28" text-anchor="middle" fill="#fff">7</text><text x="47" y="29" fill="#718096">7. Informe</text></g>
    </g>
    <rect x="18" y="589" width="224" height="42" rx="11" fill="#071a33"/><text x="130" y="615" text-anchor="middle" font-family="Arial" font-size="13" font-weight="800" fill="#fff">Continuar inspección →</text>
  </g>

  <g transform="translate(320 126)">
    <text x="0" y="30" font-family="Arial" font-size="30" font-weight="800" fill="#071a33">Mediciones eléctricas</text>
    <text x="0" y="57" font-family="Arial" font-size="14" fill="#67778d">Registra valores, verifica límites y documenta cada punto de inspección.</text>
    <rect x="850" y="0" width="238" height="50" rx="12" fill="#ed1728" filter="url(#shadow)"/><text x="969" y="31" text-anchor="middle" font-family="Arial" font-size="14" font-weight="800" fill="#fff">+ Añadir medición</text>

    <g transform="translate(0 89)" filter="url(#shadow)">
      <rect width="1088" height="205" rx="19" fill="#fff"/>
      <text x="24" y="35" font-family="Arial" font-size="17" font-weight="800" fill="#071a33">Resumen del bloque</text>
      <g transform="translate(24 62)">
        <g><rect width="242" height="112" rx="14" fill="#f7f9fc"/><text x="18" y="27" font-family="Arial" font-size="11" font-weight="800" fill="#74849a">RESISTENCIA DE TIERRA</text><text x="18" y="73" font-family="Arial" font-size="31" font-weight="800" fill="#071a33">8,7 Ω</text><rect x="156" y="58" width="68" height="27" rx="13" fill="#eaf9f1"/><text x="190" y="76" text-anchor="middle" font-family="Arial" font-size="10" font-weight="800" fill="#16844c">CORRECTA</text></g>
        <g transform="translate(258)"><rect width="242" height="112" rx="14" fill="#f7f9fc"/><text x="18" y="27" font-family="Arial" font-size="11" font-weight="800" fill="#74849a">AISLAMIENTO</text><text x="18" y="73" font-family="Arial" font-size="31" font-weight="800" fill="#071a33">245 MΩ</text><rect x="156" y="58" width="68" height="27" rx="13" fill="#eaf9f1"/><text x="190" y="76" text-anchor="middle" font-family="Arial" font-size="10" font-weight="800" fill="#16844c">CORRECTA</text></g>
        <g transform="translate(516)"><rect width="242" height="112" rx="14" fill="#f7f9fc"/><text x="18" y="27" font-family="Arial" font-size="11" font-weight="800" fill="#74849a">DIFERENCIAL</text><text x="18" y="73" font-family="Arial" font-size="31" font-weight="800" fill="#071a33">24 ms</text><rect x="156" y="58" width="68" height="27" rx="13" fill="#fff5d8"/><text x="190" y="76" text-anchor="middle" font-family="Arial" font-size="10" font-weight="800" fill="#946000">REVISAR</text></g>
        <g transform="translate(774)"><rect width="266" height="112" rx="14" fill="#f7f9fc"/><text x="18" y="27" font-family="Arial" font-size="11" font-weight="800" fill="#74849a">CONTINUIDAD PE</text><text x="18" y="73" font-family="Arial" font-size="31" font-weight="800" fill="#071a33">0,18 Ω</text><rect x="180" y="58" width="68" height="27" rx="13" fill="#eaf9f1"/><text x="214" y="76" text-anchor="middle" font-family="Arial" font-size="10" font-weight="800" fill="#16844c">CORRECTA</text></g>
      </g>
    </g>

    <g transform="translate(0 319)" filter="url(#shadow)">
      <rect width="704" height="329" rx="19" fill="#fff"/>
      <text x="24" y="38" font-family="Arial" font-size="17" font-weight="800" fill="#071a33">Puntos medidos</text>
      <rect x="497" y="18" width="183" height="38" rx="10" fill="#f2f6fa"/><text x="588" y="42" text-anchor="middle" font-family="Arial" font-size="12" font-weight="700" fill="#52647b">Todos los resultados ▾</text>
      <line x1="24" y1="71" x2="680" y2="71" stroke="#e8edf3"/>
      <g font-family="Arial">
        <g transform="translate(24 91)"><circle cx="13" cy="16" r="9" fill="#22b573"/><path d="M9 16l3 3 5-7" stroke="#fff" stroke-width="2" fill="none"/><text x="34" y="14" font-size="13" font-weight="800" fill="#071a33">Cuadro general CGP-01</text><text x="34" y="35" font-size="11" fill="#74849a">Tierra 8,7 Ω · Aislamiento 245 MΩ</text><text x="620" y="25" text-anchor="end" font-size="11" font-weight="800" fill="#16844c">APTO</text></g>
        <line x1="24" y1="146" x2="680" y2="146" stroke="#edf1f5"/>
        <g transform="translate(24 165)"><circle cx="13" cy="16" r="9" fill="#f0a000"/><text x="13" y="20" text-anchor="middle" font-size="12" font-weight="800" fill="#fff">!</text><text x="34" y="14" font-size="13" font-weight="800" fill="#071a33">Cuadro secundario CS-2A</text><text x="34" y="35" font-size="11" fill="#74849a">Diferencial 24 ms · Verificar ensayo</text><text x="620" y="25" text-anchor="end" font-size="11" font-weight="800" fill="#946000">REVISAR</text></g>
        <line x1="24" y1="220" x2="680" y2="220" stroke="#edf1f5"/>
        <g transform="translate(24 239)"><circle cx="13" cy="16" r="9" fill="#22b573"/><path d="M9 16l3 3 5-7" stroke="#fff" stroke-width="2" fill="none"/><text x="34" y="14" font-size="13" font-weight="800" fill="#071a33">Quirófano 2 · Grupo 2</text><text x="34" y="35" font-size="11" fill="#74849a">Continuidad PE 0,18 Ω · Correcta</text><text x="620" y="25" text-anchor="end" font-size="11" font-weight="800" fill="#16844c">APTO</text></g>
      </g>
    </g>

    <g transform="translate(730 319)" filter="url(#shadow)">
      <rect width="358" height="329" rx="19" fill="#071a33"/>
      <text x="24" y="39" font-family="Arial" font-size="17" font-weight="800" fill="#fff">Evidencias y defectos</text>
      <g transform="translate(24 69)">
        <rect width="310" height="86" rx="14" fill="#102d52"/>
        <text x="18" y="26" font-family="Arial" font-size="11" font-weight="800" fill="#8ed3ff">FOTOGRAFÍAS</text>
        <text x="18" y="62" font-family="Arial" font-size="29" font-weight="800" fill="#fff">12</text>
        <text x="70" y="60" font-family="Arial" font-size="12" fill="#b8cae0">evidencias vinculadas</text>
      </g>
      <g transform="translate(24 169)">
        <rect width="310" height="86" rx="14" fill="#102d52"/>
        <text x="18" y="26" font-family="Arial" font-size="11" font-weight="800" fill="#ff9ba4">DEFECTOS</text>
        <text x="18" y="62" font-family="Arial" font-size="29" font-weight="800" fill="#fff">3</text>
        <text x="52" y="60" font-family="Arial" font-size="12" fill="#b8cae0">2 leves · 1 pendiente</text>
      </g>
      <rect x="24" y="273" width="310" height="38" rx="10" fill="#ed1728"/>
      <text x="179" y="297" text-anchor="middle" font-family="Arial" font-size="12" font-weight="800" fill="#fff">Revisar defectos →</text>
    </g>
  </g>
</svg>
